<mxfile host="app.diagrams.net" modified="2022-09-02T08:14:01.219Z" agent="5.0 (Macintosh; Intel Mac OS X 10_15_7) AppleWebKit/537.36 (KHTML, like Gecko) Chrome/104.0.5112.102 Safari/537.36 Edg/104.0.1293.70" etag="yX_dDVxv2MR_OoILaGcd" version="20.2.8" type="github">
  <diagram id="X8UpvGL8UhNyPuAn8t3-" name="第 1 页">
    <mxGraphModel dx="1426" dy="769" grid="1" gridSize="10" guides="1" tooltips="1" connect="1" arrows="1" fold="1" page="1" pageScale="1" pageWidth="827" pageHeight="1169" math="0" shadow="0">
      <root>
        <mxCell id="0" />
        <mxCell id="1" parent="0" />
        <mxCell id="f4iBLd5RIIe-QOyzxAOE-3" value="" style="endArrow=classic;html=1;rounded=0;sketch=1;" edge="1" parent="1">
          <mxGeometry relative="1" as="geometry">
            <mxPoint x="110" y="480" as="sourcePoint" />
            <mxPoint x="330" y="470" as="targetPoint" />
          </mxGeometry>
        </mxCell>
        <mxCell id="f4iBLd5RIIe-QOyzxAOE-5" value="" style="shape=xor;whiteSpace=wrap;html=1;sketch=1;" vertex="1" parent="1">
          <mxGeometry x="220" y="370" width="60" height="200" as="geometry" />
        </mxCell>
        <mxCell id="f4iBLd5RIIe-QOyzxAOE-6" value="" style="whiteSpace=wrap;html=1;sketch=1;" vertex="1" parent="1">
          <mxGeometry x="50" y="160" width="310" height="190" as="geometry" />
        </mxCell>
        <mxCell id="f4iBLd5RIIe-QOyzxAOE-7" value="Actor" style="shape=umlActor;verticalLabelPosition=bottom;verticalAlign=top;html=1;outlineConnect=0;sketch=1;" vertex="1" parent="1">
          <mxGeometry x="280" y="270" width="30" height="60" as="geometry" />
        </mxCell>
      </root>
    </mxGraphModel>
  </diagram>
</mxfile>
